<?xml version="1.0" encoding="UTF-8" standalone="no"?>
<!-- Generator: Adobe Illustrator 19.0.0, SVG Export Plug-In . SVG Version: 6.00 Build 0)  -->

<svg
   xmlns:dc="http://purl.org/dc/elements/1.1/"
   xmlns:cc="http://creativecommons.org/ns#"
   xmlns:rdf="http://www.w3.org/1999/02/22-rdf-syntax-ns#"
   xmlns:svg="http://www.w3.org/2000/svg"
   xmlns="http://www.w3.org/2000/svg"
   xmlns:sodipodi="http://sodipodi.sourceforge.net/DTD/sodipodi-0.dtd"
   xmlns:inkscape="http://www.inkscape.org/namespaces/inkscape"
   version="1.1"
   id="Layer_1"
   x="0px"
   y="0px"
   viewBox="0 0 16 16"
   xml:space="preserve"
   sodipodi:docname="bar.svg"
   width="16"
   height="16"
   inkscape:version="0.92.4 (5da689c313, 2019-01-14)"><metadata
   id="metadata49"><rdf:RDF><cc:Work
       rdf:about=""><dc:format>image/svg+xml</dc:format><dc:type
         rdf:resource="http://purl.org/dc/dcmitype/StillImage" /><dc:title></dc:title></cc:Work></rdf:RDF></metadata><defs
   id="defs47" /><sodipodi:namedview
   pagecolor="#ffffff"
   bordercolor="#666666"
   borderopacity="1"
   objecttolerance="10"
   gridtolerance="10"
   guidetolerance="10"
   inkscape:pageopacity="0"
   inkscape:pageshadow="2"
   inkscape:window-width="1920"
   inkscape:window-height="1012"
   id="namedview45"
   showgrid="false"
   inkscape:zoom="7.375"
   inkscape:cx="6.2354833"
   inkscape:cy="41.347362"
   inkscape:window-x="0"
   inkscape:window-y="32"
   inkscape:window-maximized="1"
   inkscape:current-layer="Layer_1" />
<g
   id="g6"
   transform="matrix(0.03117897,0,0,0.03117897,0.13559322,0.99462125)">
	<g
   id="g4">
		<path
   d="M 499.904,456.607 H 12.096 C 5.415,456.607 0,462.022 0,468.703 c 0,6.679 5.415,12.096 12.096,12.096 h 487.808 c 6.679,0 12.096,-5.417 12.096,-12.096 0,-6.68 -5.415,-12.096 -12.096,-12.096 z"
   id="path2"
   inkscape:connector-curvature="0" />
	</g>
</g>
<g
   id="g12"
   transform="matrix(0.03117897,0,0,0.03117897,0.13559322,0.99462125)">
	<g
   id="g10">
		<path
   d="m 468.37,88.305 h -84.948 c -6.679,0 -12.096,5.417 -12.096,12.096 v 82.24 H 310.569 V 43.297 c 0,-6.679 -5.417,-12.096 -12.096,-12.096 h -84.95 c -6.679,0 -12.096,5.417 -12.096,12.096 V 272.179 H 140.67 V 169.36 c 0,-6.681 -5.417,-12.096 -12.096,-12.096 H 43.626 c -6.681,0 -12.096,5.415 -12.096,12.096 v 231.563 c 0,6.681 5.417,12.096 12.096,12.096 h 84.948 84.948 84.95 84.949 84.948 c 6.681,0 12.096,-5.417 12.096,-12.096 V 100.401 C 480.466,93.722 475.051,88.305 468.37,88.305 Z M 116.479,388.827 H 55.722 V 181.456 h 60.757 z m 84.95,0 h -60.757 v -92.456 h 60.757 z m 84.949,-194.09 v 194.09 H 225.62 V 55.393 h 60.758 z m 84.95,194.09 H 310.571 V 206.833 h 60.757 z m 84.948,0 H 395.52 v -194.09 -82.24 h 60.757 v 276.33 z"
   id="path8"
   inkscape:connector-curvature="0" />
	</g>
</g>
<g
   id="g14"
   transform="translate(0,-496)">
</g>
<g
   id="g16"
   transform="translate(0,-496)">
</g>
<g
   id="g18"
   transform="translate(0,-496)">
</g>
<g
   id="g20"
   transform="translate(0,-496)">
</g>
<g
   id="g22"
   transform="translate(0,-496)">
</g>
<g
   id="g24"
   transform="translate(0,-496)">
</g>
<g
   id="g26"
   transform="translate(0,-496)">
</g>
<g
   id="g28"
   transform="translate(0,-496)">
</g>
<g
   id="g30"
   transform="translate(0,-496)">
</g>
<g
   id="g32"
   transform="translate(0,-496)">
</g>
<g
   id="g34"
   transform="translate(0,-496)">
</g>
<g
   id="g36"
   transform="translate(0,-496)">
</g>
<g
   id="g38"
   transform="translate(0,-496)">
</g>
<g
   id="g40"
   transform="translate(0,-496)">
</g>
<g
   id="g42"
   transform="translate(0,-496)">
</g>
</svg>