<?xml version="1.0" encoding="UTF-8" standalone="no"?>
<svg
   xmlns:dc="http://purl.org/dc/elements/1.1/"
   xmlns:cc="http://creativecommons.org/ns#"
   xmlns:rdf="http://www.w3.org/1999/02/22-rdf-syntax-ns#"
   xmlns:svg="http://www.w3.org/2000/svg"
   xmlns="http://www.w3.org/2000/svg"
   xmlns:sodipodi="http://sodipodi.sourceforge.net/DTD/sodipodi-0.dtd"
   xmlns:inkscape="http://www.inkscape.org/namespaces/inkscape"
   width="32"
   height="32"
   viewBox="0 0 24 24"
   xml:space="preserve"
   version="1.1"
   id="svg28"
   sodipodi:docname="Postgresql_elephant.svg"
   inkscape:version="0.92.4 (5da689c313, 2019-01-14)"><metadata
   id="metadata34"><rdf:RDF><cc:Work
       rdf:about=""><dc:format>image/svg+xml</dc:format><dc:type
         rdf:resource="http://purl.org/dc/dcmitype/StillImage" /><dc:title></dc:title></cc:Work></rdf:RDF></metadata><defs
   id="defs32" /><sodipodi:namedview
   pagecolor="#ffffff"
   bordercolor="#666666"
   borderopacity="1"
   objecttolerance="10"
   gridtolerance="10"
   guidetolerance="10"
   inkscape:pageopacity="0"
   inkscape:pageshadow="2"
   inkscape:window-width="1920"
   inkscape:window-height="1016"
   id="namedview30"
   showgrid="false"
   inkscape:zoom="17.984758"
   inkscape:cx="7.3608035"
   inkscape:cy="23.264398"
   inkscape:window-x="0"
   inkscape:window-y="27"
   inkscape:window-maximized="1"
   inkscape:current-layer="Layer_x0020_3"
   units="px" />
<g
   id="orginal"
   style="clip-rule:nonzero;fill-rule:nonzero;stroke:#000000;stroke-miterlimit:4"
   transform="translate(0,-421.383)">
	</g>
<g
   id="Layer_x0020_3"
   style="clip-rule:nonzero;fill:none;fill-rule:nonzero;stroke:#ffffff;stroke-width:12.46510029;stroke-linecap:round;stroke-linejoin:round;stroke-miterlimit:4"
   transform="translate(0,-421.383)">











<g
   id="g852"
   transform="translate(0.54790403,0.01056683)"><path
     inkscape:connector-curvature="0"
     id="path5"
     d="m 20.075683,435.54413 c -2.254154,0.46497 -2.409115,-0.29823 -2.409115,-0.29823 2.380031,-3.53157 3.374956,-8.01438 2.516351,-9.11152 -2.342345,-2.9928 -6.39706,-1.5774 -6.464726,-1.54065 l -0.02178,0.004 c -0.445346,-0.0924 -0.943749,-0.14752 -1.503905,-0.15666 -1.019974,-0.0167 -1.793661,0.2674 -2.3807481,0.71261 0,0 -7.2332143,-2.9798 -6.8968076,3.74766 0.071565,1.43122 2.0513324,10.82923 4.4127218,7.99059 0.8630869,-1.03799 1.6970009,-1.91564 1.6970009,-1.91564 0.414201,0.27514 0.9100498,0.4155 1.429874,0.36508 l 0.04037,-0.0343 c -0.01255,0.12888 -0.0068,0.25494 0.01617,0.40416 -0.608328,0.67967 -0.429571,0.79901 -1.6456456,1.04933 -1.2305037,0.2536 -0.5076349,0.70507 -0.035671,0.82307 0.5721649,0.14308 1.8958776,0.34578 2.7902886,-0.90629 l -0.03567,0.14287 c 0.238358,0.19089 0.405733,1.24179 0.377679,2.19442 -0.02805,0.95266 -0.04678,1.6067 0.141025,2.11755 0.187809,0.51087 0.37499,1.66031 1.973628,1.31776 1.335812,-0.28626 2.02803,-1.02808 2.124332,-2.26549 0.06834,-0.87971 0.222987,-0.74967 0.232756,-1.53617 l 0.12404,-0.37234 c 0.143041,-1.19251 0.02272,-1.57722 0.8457,-1.39828 l 0.199997,0.0175 c 0.60573,0.0275 1.398506,-0.0974 1.863793,-0.31369 1.001916,-0.46497 1.596129,-1.24131 0.608239,-1.03732 z"
     style="stroke:#000000;stroke-width:0.55859107" /><path
     inkscape:connector-curvature="0"
     style="stroke:#000000;stroke-width:0.55859107"
     id="path7"
     d="m 11.716871,436.2277 c -0.06207,2.21892 0.01559,4.45332 0.23271,4.99635 0.217251,0.54304 0.68218,1.59927 2.280951,1.25677 1.335679,-0.28635 1.821669,-0.8405 2.032556,-2.06366 0.15532,-0.89992 0.454757,-3.3992 0.493161,-3.91127" /><path
     inkscape:connector-curvature="0"
     style="stroke:#000000;stroke-width:0.55859107"
     id="path9"
     d="m 9.800603,425.104 c 0,0 -7.238144,-2.95833 -6.9016477,3.76913 0.071565,1.43121 2.0514668,10.82954 4.4128114,7.99077 0.8629076,-1.03813 1.6433155,-1.85232 1.6433155,-1.85232" /><path
     inkscape:connector-curvature="0"
     style="stroke:#000000;stroke-width:0.55859107"
     id="path11"
     d="m 13.71026,424.56406 c -0.250545,0.0786 4.026305,-1.56345 6.456885,1.54231 0.858561,1.09718 -0.136365,5.58 -2.516351,9.11165" /><path
     inkscape:connector-curvature="0"
     id="path13"
     d="m 17.650749,435.21802 c 0,0 0.155096,0.76344 2.409294,0.29814 0.987666,-0.20398 0.393274,0.57243 -0.608418,1.03763 -0.822083,0.38154 -2.665173,0.47932 -2.695286,-0.0479 -0.07748,-1.36027 0.970054,-0.94701 0.894455,-1.28786 -0.06834,-0.30696 -0.536808,-0.60824 -0.846685,-1.35951 -0.270533,-0.65575 -3.710287,-5.68442 0.953921,-4.93757 0.17087,-0.0354 -1.216477,-4.43651 -5.581518,-4.50808 -4.3640563,-0.0716 -4.2208806,5.36681 -4.2208806,5.36681"
     style="stroke:#000000;stroke-width:0.55859107;stroke-linejoin:bevel" /><path
     inkscape:connector-curvature="0"
     style="stroke:#000000;stroke-width:0.55859107"
     id="path15"
     d="m 10.495196,435.68323 c -0.6084193,0.67962 -0.429484,0.79896 -1.645647,1.04937 -1.2305037,0.25363 -0.5075452,0.70503 -0.035715,0.82298 0.5721651,0.14317 1.895879,0.34585 2.790289,-0.90651 0.27237,-0.38131 -0.0016,-0.98973 -0.375751,-1.14483 -0.180774,-0.0749 -0.422491,-0.16871 -0.733176,0.17899 z" /><path
     inkscape:connector-curvature="0"
     style="stroke:#000000;stroke-width:0.55859107"
     id="path17"
     d="m 10.455357,435.67135 c -0.0613,-0.39959 0.1313,-0.8751 0.337706,-1.4314 0.310191,-0.83467 1.02589,-1.66948 0.453367,-4.31717 -0.426749,-1.97306 -3.2890509,-0.41062 -3.2908435,-0.14309 -0.00174,0.26744 0.129463,1.35601 -0.047815,2.62367 -0.2313216,1.65416 1.0525536,3.05316 2.5309595,2.91003" /><path
     inkscape:connector-curvature="0"
     id="path19"
     d="m 9.774298,429.73958 c -0.012907,0.0914 0.1672842,0.33519 0.402236,0.36777 0.234548,0.0327 0.435308,-0.15782 0.448035,-0.24911 0.01272,-0.0914 -0.16724,-0.19203 -0.402282,-0.22473 -0.2346823,-0.0327 -0.4355311,0.0149 -0.4479446,0.10607 z"
     style="fill:#ffffff;stroke:#000000;stroke-width:0.18619554;stroke-linecap:butt;stroke-linejoin:miter" /><path
     inkscape:connector-curvature="0"
     id="path21"
     d="m 16.91847,429.55329 c 0.01272,0.0914 -0.16724,0.3352 -0.402236,0.36778 -0.234727,0.0328 -0.435487,-0.15783 -0.448348,-0.24911 -0.01242,-0.0914 0.167599,-0.19202 0.40237,-0.22474 0.234772,-0.0328 0.435487,0.0149 0.448214,0.10612 z"
     style="fill:#ffffff;stroke:#000000;stroke-width:0.09309777;stroke-linecap:butt;stroke-linejoin:miter" /><path
     inkscape:connector-curvature="0"
     style="stroke:#000000;stroke-width:0.55859107"
     id="path23"
     d="m 17.75803,428.92095 c 0.03867,0.71673 -0.154378,1.20491 -0.178712,1.96789 -0.03603,1.10901 0.528742,2.37837 -0.322246,3.6493" /><path
     inkscape:connector-curvature="0"
     id="path25"
     d="M 2.0433969,426.0888"
     style="stroke:#000000;stroke-width:0.1344372" /></g>
</g>
</svg>