<?xml version="1.0" encoding="UTF-8" standalone="no"?>
<!-- Created with Inkscape (http://www.inkscape.org/) -->

<svg
   xmlns:dc="http://purl.org/dc/elements/1.1/"
   xmlns:cc="http://creativecommons.org/ns#"
   xmlns:rdf="http://www.w3.org/1999/02/22-rdf-syntax-ns#"
   xmlns:svg="http://www.w3.org/2000/svg"
   xmlns="http://www.w3.org/2000/svg"
   xmlns:xlink="http://www.w3.org/1999/xlink"
   xmlns:sodipodi="http://sodipodi.sourceforge.net/DTD/sodipodi-0.dtd"
   xmlns:inkscape="http://www.inkscape.org/namespaces/inkscape"
   id="svg2985"
   version="1.1"
   inkscape:version="0.92.4 (5da689c313, 2019-01-14)"
   width="32"
   height="32"
   xml:space="preserve"
   sodipodi:docname="sqlite.svg"><metadata
     id="metadata2991"><rdf:RDF><cc:Work
         rdf:about=""><dc:format>image/svg+xml</dc:format><dc:type
           rdf:resource="http://purl.org/dc/dcmitype/StillImage" /><dc:title></dc:title></cc:Work></rdf:RDF></metadata><defs
     id="defs2989"><linearGradient
       x1="0"
       y1="0"
       x2="1"
       y2="0"
       gradientUnits="userSpaceOnUse"
       gradientTransform="matrix(-4.02e-6,-91.8907,-91.8907,4.02e-6,85.8809,161.434)"
       spreadMethod="pad"
       id="linearGradient3027"><stop
         style="stop-opacity:1;stop-color:#97d9f6"
         offset="0"
         id="stop3029" /><stop
         style="stop-opacity:1;stop-color:#0f80cc"
         offset="0.920245"
         id="stop3031" /><stop
         style="stop-opacity:1;stop-color:#0f80cc"
         offset="1"
         id="stop3033" /></linearGradient><linearGradient
       inkscape:collect="always"
       xlink:href="#linearGradient3027"
       id="linearGradient5421"
       gradientUnits="userSpaceOnUse"
       gradientTransform="matrix(-4.02e-7,-9.18907,-9.18907,4.02e-7,8.58809,16.1434)"
       spreadMethod="pad"
       x1="-15.614694"
       y1="-9.1082983"
       x2="-6.7410073"
       y2="-9.1082983" /></defs><sodipodi:namedview
     pagecolor="#ffffff"
     bordercolor="#666666"
     borderopacity="1"
     objecttolerance="10"
     gridtolerance="10"
     guidetolerance="10"
     inkscape:pageopacity="0"
     inkscape:pageshadow="2"
     inkscape:window-width="1920"
     inkscape:window-height="1016"
     id="namedview2987"
     showgrid="false"
     inkscape:zoom="11.793684"
     inkscape:cx="24.911516"
     inkscape:cy="14.834218"
     inkscape:window-x="0"
     inkscape:window-y="27"
     inkscape:window-maximized="1"
     inkscape:current-layer="g2998"
     fit-margin-top="10"
     fit-margin-left="10"
     fit-margin-right="10"
     fit-margin-bottom="10"
     inkscape:snap-page="true"
     inkscape:snap-bbox="true" /><g
     id="g2993"
     inkscape:groupmode="layer"
     inkscape:label="ink_ext_XXXXXX"
     transform="matrix(1.25,0,0,-1.25,-41.57475,75.78375)"><g
       id="g2998"
       transform="matrix(0.2013811,0,0,0.2013811,27.425703,26.362175)"><path
         d="m 109.0654,150.67523 c -3.96136,3.53267 -8.75756,2.11365 -13.491284,-2.08748 -0.70261,-0.62414 -1.40377,-1.31658 -2.10129,-2.05625 -8.09782,-8.59044 -15.614368,-24.5027 -17.949619,-36.65487 0.909688,-1.84481 1.620286,-4.19895 2.088212,-5.99725 0.119889,-0.46139 0.228146,-0.89444 0.314615,-1.26281 0.205622,-0.87184 0.316072,-1.43719 0.316072,-1.43719 0,0 -0.0727,0.27472 -0.370572,1.13855 -0.05669,0.16567 -0.119881,0.34659 -0.194725,0.55948 -0.03198,0.0879 -0.07631,0.19473 -0.124972,0.3088 -0.528226,1.22794 -1.989394,3.81967 -2.632424,4.94806 -0.550027,-1.62247 -1.036117,-3.14031 -1.443006,-4.51356 1.856434,-3.39665 2.987731,-9.217638 2.987731,-9.217638 0,0 -0.09809,0.377246 -0.564559,1.693894 -0.414155,1.164503 -2.476939,4.778694 -2.965569,5.623644 -0.835866,-3.085671 -1.16799,-5.168945 -0.86849,-5.676176 0.581487,-0.982854 1.135293,-2.678711 1.621597,-4.554179 1.098603,-4.225033 1.862247,-9.368473 1.862247,-9.368473 0,0 0.0247,-0.340842 0.06612,-0.865366 -0.152584,-3.548072 -0.06103,-7.226712 0.213616,-10.551721 0.36402,-4.401522 1.049191,-8.18261 1.922549,-10.206229 l 0.592897,0.323259 c -1.282427,3.986858 -1.80339,9.211749 -1.575238,15.237338 0.345124,9.210296 2.464578,20.317495 6.380898,31.894287 6.6163,17.47588 15.79601,31.49756 24.197544,38.19379 -7.657504,-6.91566 -18.021554,-29.30108 -21.124084,-37.59072 -3.47381,-9.282884 -5.93549,-17.994016 -7.41918,-26.340109 2.55977,7.824402 10.83632,11.187703 10.83632,11.187703 0,0 4.05945,5.00641 8.80333,12.158866 -2.84167,-0.64812 -7.50782,-1.75762 -9.07071,-2.41446 -2.30546,-0.96708 -2.92669,-1.29695 -2.92669,-1.29695 0,0 7.46785,4.54771 13.874904,6.60686 8.81134,13.87781 18.411,33.59304 8.74376,42.2169"
         style="fill:#000000;fill-opacity:1;fill-rule:nonzero;stroke:none;stroke-width:0.72658747"
         id="path3045"
         inkscape:connector-curvature="0" /></g></g></svg>